<svg xmlns="http://www.w3.org/2000/svg" width="32" height="32"><linearGradient id="a" x2="17" y1="-1" y2="18" gradientUnits="userSpaceOnUse"><stop offset="0" stop-color="#fff"/><stop offset="1" stop-color="#fff" stop-opacity="0"/></linearGradient><linearGradient id="b" x1="9" x2="30" y1="9" y2="30" gradientUnits="userSpaceOnUse"><stop offset="0"/><stop offset="1" stop-opacity="0"/></linearGradient><rect width="28" height="28" x="2" y="2" fill="#2d3033" rx="1"/><rect width="28" height="28" x="2" y="2" fill="url(#a)" opacity=".276" rx="1"/><path fill="url(#b)" d="M23.414 10.586 22 12H6l-.729.729L11 18.455V20H6l-.729.729L14.545 30H29c.554 0 1-.446 1-1V17.172z" opacity=".4"/><g transform="translate(-30)"><path fill="#3daee9" d="M36 19c-1.352-.02-1.352 2.02 0 2h6v-2z"/><circle cx="42" cy="20" r="2" fill="#fafafa"/><path fill="#fcfcfc" d="M42 19v2h14c1.352.02 1.352-2.02 0-2z" opacity=".2"/></g><g transform="translate(-30)"><path fill="#3daee9" d="M36 11c-1.352-.02-1.352 2.02 0 2h16v-2z"/><circle cx="52" cy="12" r="2" fill="#fafafa"/><path fill="#fcfcfc" d="M52 11v2h4c1.352.02 1.352-2.02 0-2z" opacity=".2"/></g><path d="M2 28v1c0 .554.446 1 1 1h26c.554 0 1-.446 1-1v-1c0 .554-.446 1-1 1H3c-.554 0-1-.446-1-1" opacity=".3"/><path fill="#fff" d="M2 4V3c0-.554.446-1 1-1h26c.554 0 1 .446 1 1v1c0-.554-.446-1-1-1H3c-.554 0-1 .446-1 1" opacity=".3"/></svg>
